<?xml version="1.0"?>
<svg xmlns="http://www.w3.org/2000/svg" viewBox="0 0 50 50">
    <path d="M 14 2 C 7.4 2 2 7.4 2 14 L 2 36 C 2 42.6 7.4 48 14 48 L 36 48 C 42.6 48 48 42.6 48 36 L 48 14 C 48 7.4 42.6 2 36 2 L 14 2 z M 11.59375 18 C 12.29375 18 12.8125 18.4875 12.8125 19.1875 C 12.8125 19.8875 12.29375 20.40625 11.59375 20.40625 C 10.89375 20.40625 10.40625 19.8875 10.40625 19.1875 C 10.40625 18.4875 10.89375 18 11.59375 18 z M 22 18.59375 C 25.7 18.59375 27.90625 21.1875 27.90625 25.1875 C 27.90625 29.3875 25.7 31.90625 22 31.90625 C 18.3 31.90625 16.09375 29.2875 16.09375 25.1875 C 16.09375 21.0875 18.4 18.59375 22 18.59375 z M 35 18.6875 C 37.6 18.6875 39.49375 20.2125 39.59375 22.3125 L 37.6875 22.3125 C 37.4875 21.1125 36.5 20.40625 35 20.40625 C 33.4 20.40625 32.40625 21.1125 32.40625 22.3125 C 32.40625 23.2125 33.0875 23.69375 34.6875 24.09375 L 36.09375 24.40625 C 38.69375 25.00625 39.8125 26.1 39.8125 28 C 39.7125 30.4 37.9125 31.90625 34.8125 31.90625 C 32.0125 31.90625 30.1 30.3875 30 28.1875 L 32 28.1875 C 32.2 29.3875 33.3 30.1875 35 30.1875 C 36.6 30.1875 37.6875 29.4125 37.6875 28.3125 C 37.6875 27.3125 37.0125 26.80625 35.3125 26.40625 L 33.6875 26 C 31.3875 25.5 30.40625 24.4 30.40625 22.5 C 30.40625 20.2 32.2 18.6875 35 18.6875 z M 22 20.5 C 19.6 20.5 18.09375 22.4125 18.09375 25.3125 C 18.09375 28.2125 19.6 30.09375 22 30.09375 C 24.4 30.09375 25.90625 28.2125 25.90625 25.3125 C 25.90625 22.3125 24.4 20.5 22 20.5 z M 10.6875 22 L 12.59375 22 L 12.59375 31.59375 L 10.6875 31.59375 L 10.6875 22 z"/>
</svg>
